<svg enable-background="new 0 0 170 50" viewBox="0 0 170 50" xmlns="http://www.w3.org/2000/svg"><path d="m36 19 12 6-12 6-12-6z" fill="#cc291f"/><path d="m24 1-24 12 12 6 24-12z" fill="#39c"/><path d="m24 37v12l24-12v-12z" fill="#fc0"/><path d="m12 31v-12l-12-6v24l24 12v-12z" fill="#9c3"/><g fill="#2d3134"><path d="m138.2 17v-10.9h2.1l5.3 6.5 5.3-6.5h2.1v10.9h-2.5v-7.5l-4.9 6.2h-.5l-4.9-6v7.3z"/><path d="m170 8.3v-.2c0-1.1-.9-2.1-2.1-2.1h-8.5c-1.1 0-2.1.9-2.1 2.1v2.3c0 1.1.9 2.1 2.1 2.1h8v2.5h-7.9v-1.6l-2.6 1.3v.2c0 1.1.9 2.1 2.1 2.1h9c1.1 0 2.1-.9 2.1-2.1v-2.4c0-1.1-.9-2.1-2.1-2.1h-8v-2.4h7.4v1.6z"/><path d="m44.8 17v-10.9h2.6v10.9z"/><path d="m120 17 6.5-10.9h2.6l6.6 10.9h-3l-1.4-2.4h-7.3l-1.4 2.4zm5.2-4.4h5l-2.5-4.5z"/><path d="m68.6 8.1v6.8c0 1.1.9 2.1 2.1 2.1h10c1.1 0 2.1-.9 2.1-2.1v-6.8c0-1.1-.9-2.1-2.1-2.1h-10c-1.2.1-2.1 1-2.1 2.1zm11.5 6.9h-8.9v-6.9h8.9z"/><path d="m100.6 8.4v-.3c0-1.1-.9-2.1-2.1-2.1h-9.4c-1.2.1-2.1 1-2.1 2.1v6.8c0 1.1.9 2.1 2.1 2.1h9.4c1.1 0 2.1-.9 2.1-2.1v-4.2h-6.9v2h4.3v2.3h-8.3v-6.9h8.3v1.7z"/><path d="m61.9 12.9v2.1h-7.2v-6.9h7.2v2.1l2.6-1.2v-.9c0-1.1-.9-2.1-2.1-2.1h-8.3c-1.2.1-2.1 1-2.1 2.1v6.8c0 1.1.9 2.1 2.1 2.1h8.3c1.1 0 2.1-.9 2.1-2.1v-.8z"/><path d="m113.3 12.8h2.2c1.1 0 2.1-.9 2.1-2.1v-2.6c0-1.1-.9-2.1-2.1-2.1h-10.4v11h2.6v-4.2h2.6l4.6 4.2h3.7zm-5.6-2v-2.7h7.3v2.8h-7.3z"/></g></svg>